<svg id="Layer_1" data-name="Layer 1" xmlns="http://www.w3.org/2000/svg" viewBox="0 0 98.36 97.7"><title>icon</title><path d="M19.26,1.27H80.74a18.27,18.27,0,0,1,18.32,18.2V80.53a18.27,18.27,0,0,1-18.32,18.2H19.26A18.27,18.27,0,0,1,.94,80.53V19.47A18.27,18.27,0,0,1,19.26,1.27Z" transform="translate(-0.82 -1.15)" style="fill:#262626;stroke:#000;stroke-miterlimit:10;stroke-width:0.25px"/><g id="Layer_1-2" data-name="Layer 1"><path d="M71.09,33.62a2.45,2.45,0,0,0-1.86-.85h-34l-.48-2.87a2.46,2.46,0,0,0-2.42-2.06H26.77a2.47,2.47,0,0,0,0,4.93h3.45L34.8,60.25c0,.11.08.2.11.31a2.32,2.32,0,0,0,.13.37,2.63,2.63,0,0,0,.3.44,3,3,0,0,0,.23.27,2.11,2.11,0,0,0,.48.32,1.48,1.48,0,0,0,.27.16,2.35,2.35,0,0,0,.91.19H64.31a2.46,2.46,0,0,0,0-4.92h-25l-.4-2.47H66.77a2.46,2.46,0,0,0,2.44-2.11l2.46-17.23A2.44,2.44,0,0,0,71.09,33.62Zm-4.7,4.07-.7,4.92H56.92V37.69Zm-11.93,0v4.92H47.08V37.69Zm0,7.39V50H47.08V45.08Zm-9.84-7.39v4.92H37.23a1.05,1.05,0,0,0-.36.08l-.84-5Zm-7.36,7.39h7.36V50H38.08ZM56.92,50V45.08h8.42L64.64,50Z" transform="translate(-0.82 -1.15)" style="fill:#ff3644"/><circle cx="40.1" cy="67.32" r="3.69" style="fill:#ff3644"/><circle cx="62.26" cy="67.32" r="3.69" style="fill:#ff3644"/></g></svg>