<?xml version="1.0" encoding="utf-8"?>
<!-- Generator: Adobe Illustrator 22.1.0, SVG Export Plug-In . SVG Version: 6.00 Build 0)  -->
<svg version="1.1" id="Layer_1" xmlns="http://www.w3.org/2000/svg" xmlns:xlink="http://www.w3.org/1999/xlink" x="0px" y="0px"
	 viewBox="0 0 59.3 60.7" style="enable-background:new 0 0 59.3 60.7;" xml:space="preserve">
<style type="text/css">
	.st0{fill:#0D3284;}
	.st1{fill:#E3EEFF;}
</style>
<title>abandoned-cart</title>
<ellipse class="st0" cx="29.6" cy="30.3" rx="29.6" ry="30.3"/>
<g>
	<g>
		<g>
			<path class="st1" d="M25.3,28c0.4-0.4,0.9-0.6,1.6-0.6v-0.7h0.5v0.7c0.7,0,1.2,0.2,1.5,0.6c0.4,0.3,0.5,0.8,0.6,1.4h-0.9
				c0-0.3-0.1-0.5-0.2-0.7c-0.2-0.3-0.6-0.5-1-0.5v2.5c0.8,0.2,1.3,0.4,1.6,0.6c0.5,0.3,0.7,0.8,0.7,1.4c0,0.9-0.3,1.5-0.9,1.9
				c-0.3,0.2-0.8,0.3-1.4,0.4v1h-0.5v-1c-1-0.1-1.7-0.4-2-1c-0.2-0.3-0.3-0.8-0.3-1.4h0.9c0,0.5,0.1,0.8,0.2,1
				c0.2,0.4,0.6,0.6,1.2,0.6v-2.8c-0.7-0.1-1.3-0.4-1.6-0.7c-0.3-0.3-0.5-0.8-0.5-1.3C24.8,28.9,24.9,28.4,25.3,28z M26,30.1
				c0.2,0.2,0.5,0.3,0.9,0.4v-2.4c-0.4,0-0.8,0.2-1,0.4c-0.2,0.3-0.3,0.5-0.3,0.8C25.7,29.7,25.8,29.9,26,30.1z M28.6,33.6
				c0.1-0.2,0.2-0.4,0.2-0.7c0-0.4-0.2-0.7-0.5-1c-0.2-0.1-0.5-0.3-0.9-0.4v2.7C28,34.2,28.4,34,28.6,33.6z"/>
		</g>
		<g>
			<g>
				<polygon class="st1" points="39,41.2 15.1,41.2 10.7,21.5 37.6,21.5 36.8,24.3 14.2,24.3 17.4,38.4 36.7,38.4 41.6,16.4 
					51.8,16.4 51.8,19.2 43.8,19.2 				"/>
			</g>
			<g>
				<g>
					<path class="st1" d="M23,45c0,1.5-1.2,2.6-2.6,2.6c-1.5,0-2.6-1.2-2.6-2.6c0-1.5,1.2-2.6,2.6-2.6C21.8,42.3,23,43.5,23,45z"/>
				</g>
				<g>
					<path class="st1" d="M36.8,45c0,1.5-1.2,2.6-2.6,2.6c-1.5,0-2.6-1.2-2.6-2.6c0-1.5,1.2-2.6,2.6-2.6
						C35.6,42.3,36.8,43.5,36.8,45z"/>
				</g>
			</g>
		</g>
	</g>
</g>
</svg>
