<?xml version="1.0" encoding="utf-8"?>
<!-- Generator: Adobe Illustrator 22.1.0, SVG Export Plug-In . SVG Version: 6.00 Build 0)  -->
<svg version="1.1" id="Layer_1" xmlns="http://www.w3.org/2000/svg" xmlns:xlink="http://www.w3.org/1999/xlink" x="0px" y="0px"
	 viewBox="0 0 59.3 60.7" style="enable-background:new 0 0 59.3 60.7;" xml:space="preserve">
<style type="text/css">
	.st0{fill:#020202;}
</style>
<title>abandoned-cart-grey</title>
<g>
	<g>
		<g>
			<path class="st0" d="M25.4,23.3c0.7-0.7,1.6-1.1,2.7-1.1V21H29v1.1c1.2,0.1,2.1,0.4,2.7,1c0.6,0.6,0.9,1.4,1,2.4h-1.5
				c0-0.4-0.2-0.8-0.4-1.2c-0.4-0.6-1-0.9-1.8-0.9v4.3c1.4,0.4,2.3,0.7,2.8,1.1c0.8,0.5,1.2,1.4,1.2,2.4c0,1.6-0.5,2.7-1.5,3.3
				c-0.6,0.4-1.4,0.6-2.4,0.7v1.7h-0.8v-1.7c-1.7-0.1-2.9-0.7-3.5-1.8c-0.3-0.6-0.5-1.4-0.5-2.4h1.6c0,0.8,0.2,1.4,0.4,1.8
				c0.4,0.7,1,1,2,1.1v-4.8C26.9,29,26,28.6,25.4,28c-0.6-0.6-0.9-1.3-0.9-2.3C24.5,24.8,24.8,24,25.4,23.3z M26.6,26.9
				c0.4,0.3,0.9,0.6,1.6,0.7v-4.1c-0.8,0-1.3,0.3-1.7,0.7c-0.3,0.4-0.5,0.9-0.5,1.4C26,26.2,26.2,26.6,26.6,26.9z M31.1,33
				c0.2-0.3,0.3-0.8,0.3-1.2c0-0.7-0.3-1.3-0.8-1.7c-0.3-0.2-0.8-0.4-1.6-0.6v4.6C30,34,30.7,33.7,31.1,33z"/>
		</g>
		<g>
			<g>
				<polygon class="st0" points="49.1,46.2 7.7,46.2 0.1,12 46.6,12 45.4,16.9 6.2,16.9 11.7,41.3 45.1,41.3 53.6,3.2 71.3,3.2 
					71.3,8 57.5,8 				"/>
			</g>
			<g>
				<g>
					<path class="st0" d="M21.4,52.7c0,2.5-2,4.6-4.6,4.6c-2.5,0-4.6-2-4.6-4.6c0-2.5,2-4.6,4.6-4.6C19.4,48.1,21.4,50.1,21.4,52.7z
						"/>
				</g>
				<g>
					<path class="st0" d="M45.3,52.7c0,2.5-2,4.6-4.6,4.6c-2.5,0-4.6-2-4.6-4.6c0-2.5,2-4.6,4.6-4.6C43.3,48.1,45.3,50.1,45.3,52.7z
						"/>
				</g>
			</g>
		</g>
	</g>
</g>
</svg>
