<?xml version="1.0" encoding="utf-8"?>
<!-- Generator: Adobe Illustrator 23.0.2, SVG Export Plug-In . SVG Version: 6.00 Build 0)  -->
<svg version="1.1" id="Layer_1" xmlns="http://www.w3.org/2000/svg" xmlns:xlink="http://www.w3.org/1999/xlink" x="0px" y="0px"
	 viewBox="0 0 59.3 60.7" style="enable-background:new 0 0 59.3 60.7;" xml:space="preserve">
<style type="text/css">
	.st0{fill:#030104;}
</style>
<title>abandoned-cart-grey</title>
<g>
	<g id="Layer_1_107_">
		<g>
			<path class="st0" d="M55.9,11.8c-0.5-0.6-1.3-1-2.1-1H15.1l-0.5-3.3c-0.2-1.3-1.4-2.3-2.8-2.3H5.5C4,5.2,2.8,6.4,2.8,8
				s1.2,2.8,2.8,2.8h3.9L14.7,42c0,0.1,0.1,0.2,0.1,0.3c0,0.1,0.1,0.3,0.2,0.4c0.1,0.2,0.2,0.3,0.3,0.5c0.1,0.1,0.2,0.2,0.3,0.3
				c0.2,0.2,0.3,0.3,0.5,0.4c0.1,0.1,0.2,0.1,0.3,0.2c0.3,0.1,0.7,0.2,1,0.2c0,0,30.7,0,30.7,0c1.5,0,2.8-1.2,2.8-2.8
				c0-1.5-1.2-2.8-2.8-2.8H19.8l-0.5-2.8H51c1.4,0,2.6-1,2.8-2.4L56.5,14C56.6,13.2,56.4,12.4,55.9,11.8z M50.5,16.4L49.7,22h-10
				v-5.6H50.5z M37,16.4V22h-8.4v-5.6H37z M37,24.8v5.6h-8.4v-5.6H37z M25.8,16.4V22h-8.4c-0.1,0-0.3,0-0.4,0.1l-0.9-5.7H25.8z
				 M17.5,24.8h8.3v5.6h-7.4L17.5,24.8z M39.8,30.4v-5.6h9.6l-0.8,5.6H39.8z"/>
			<circle class="st0" cx="21.6" cy="51.3" r="4.2"/>
			<circle class="st0" cx="46.8" cy="51.3" r="4.2"/>
		</g>
	</g>
</g>
</svg>
